<svg width="104" height="57" viewBox="0 0 104 57" fill="none" xmlns="http://www.w3.org/2000/svg">
<g filter="url(#filter0_d_67_3)">
<path d="M49.08 20.664C49.208 23.64 49.192 26.664 49.032 29.736L48.888 45.048C48.408 44.984 47.88 44.952 47.304 44.952C46.728 44.952 46.152 44.952 45.576 44.952C45 44.952 44.44 44.968 43.896 45C43.384 45 42.936 45 42.552 45C42.488 43.624 42.44 42.136 42.408 40.536C42.408 38.936 42.392 37.304 42.36 35.64C42.36 33.976 42.312 32.344 42.216 30.744C42.152 29.144 42.04 27.672 41.88 26.328C41.656 26.68 41.4 27.24 41.112 28.008C40.824 28.744 40.536 29.512 40.248 30.312C39.96 31.112 39.688 31.816 39.432 32.424C39.176 33.032 38.984 33.336 38.856 33.336C38.696 33.336 38.504 33.176 38.28 32.856C38.088 32.504 37.88 32.072 37.656 31.56C37.464 31.048 37.256 30.504 37.032 29.928C36.808 29.352 36.616 28.824 36.456 28.344C36.296 27.864 36.152 27.464 36.024 27.144C35.928 26.824 35.88 26.664 35.88 26.664C35.624 29.672 35.528 32.712 35.592 35.784C35.688 38.856 35.832 41.88 36.024 44.856C35 45.016 33.88 45.08 32.664 45.048C31.448 45.016 30.328 45 29.304 45C29.24 45 29.192 44.952 29.16 44.856C29.128 44.728 29.096 44.424 29.064 43.944C29.032 43.464 29 42.744 28.968 41.784C28.968 40.792 28.968 39.496 28.968 37.896C28.968 36.296 28.968 34.312 28.968 31.944C29 29.576 29.016 26.76 29.016 23.496C29.048 20.232 29.08 16.424 29.112 12.072C29.528 11.944 30.008 11.864 30.552 11.832C31.096 11.8 31.656 11.8 32.232 11.832C32.808 11.832 33.384 11.848 33.96 11.88C34.536 11.88 35.096 11.864 35.64 11.832H35.688C35.976 12.152 36.264 12.648 36.552 13.32C36.84 13.96 37.112 14.648 37.368 15.384C37.624 16.12 37.864 16.824 38.088 17.496C38.344 18.168 38.6 18.696 38.856 19.08C38.952 19.176 39.048 19.224 39.144 19.224C39.24 19.256 39.384 18.952 39.576 18.312C39.8 17.672 40.024 16.936 40.248 16.104C40.504 15.24 40.776 14.392 41.064 13.56C41.384 12.728 41.688 12.12 41.976 11.736C42.2 11.768 42.6 11.768 43.176 11.736C43.784 11.704 44.424 11.672 45.096 11.64C45.8 11.608 46.504 11.592 47.208 11.592C47.944 11.56 48.568 11.544 49.08 11.544C48.952 14.616 48.952 17.656 49.08 20.664ZM70.6309 11.064C71.2389 11.064 71.7829 11.08 72.2629 11.112L73.5589 44.712C73.0149 44.808 72.4229 44.872 71.7829 44.904C71.1749 44.936 70.5669 44.952 69.9589 44.952C69.3829 44.952 68.8069 44.952 68.2309 44.952C67.6869 44.952 67.2229 44.968 66.8389 45H66.7909C66.6309 43.944 66.5189 42.856 66.4549 41.736C66.4229 40.584 66.3909 39.448 66.3589 38.328C66.3589 37.208 66.3429 36.088 66.3109 34.968C66.2789 33.848 66.1989 32.776 66.0709 31.752L66.0229 31.704C65.0949 31.544 64.1669 31.464 63.2389 31.464C62.3109 31.464 61.3829 31.576 60.4549 31.8C60.3589 32.92 60.3109 34.024 60.3109 35.112C60.3429 36.2 60.3749 37.288 60.4069 38.376C60.4389 39.464 60.4389 40.536 60.4069 41.592C60.4069 42.616 60.3269 43.64 60.1669 44.664C59.7829 44.888 59.2709 45 58.6309 45C57.9909 45 57.3509 44.968 56.7109 44.904C56.0709 44.84 55.4629 44.792 54.8869 44.76C54.3429 44.728 53.9269 44.792 53.6389 44.952C53.5749 44.056 53.4949 42.84 53.3989 41.304C53.3349 39.736 53.2709 37.992 53.2069 36.072C53.1429 34.12 53.0789 32.056 53.0149 29.88C52.9829 27.704 52.9509 25.528 52.9189 23.352C52.8869 21.144 52.8709 19.032 52.8709 17.016C52.9029 14.968 52.9349 13.128 52.9669 11.496V11.448H53.0149H53.1109C53.5909 11.544 54.0869 11.576 54.5989 11.544C55.1429 11.512 55.6709 11.48 56.1829 11.448C56.7269 11.416 57.2549 11.4 57.7669 11.4C58.2789 11.4 58.7589 11.464 59.2069 11.592C59.4949 13.8 59.6389 15.944 59.6389 18.024C59.6389 20.104 59.8309 22.168 60.2149 24.216H60.2629C61.0629 24.408 61.9269 24.472 62.8549 24.408C63.7829 24.312 64.6469 24.232 65.4469 24.168H65.4949C65.6869 21.96 65.7829 19.896 65.7829 17.976C65.8149 16.056 65.7829 13.944 65.6869 11.64C66.0709 11.512 66.5349 11.4 67.0789 11.304C67.6549 11.208 68.2469 11.144 68.8549 11.112C69.4629 11.048 70.0549 11.032 70.6309 11.064Z" fill="url(#paint0_linear_67_3)"/>
</g>
<path d="M19.912 38.12C20.0827 38.216 20.168 38.4347 20.168 38.776C20.168 39.192 20.0613 39.6133 19.848 40.04C19.6453 40.456 19.352 40.8027 18.968 41.08C18.5947 41.3573 18.1573 41.496 17.656 41.496C16.824 41.496 16.1893 41.112 15.752 40.344C15.3147 39.576 15.096 38.5947 15.096 37.4C15.096 36.6853 15.1707 35.9173 15.32 35.096C15.4693 34.2747 15.6507 33.5067 15.864 32.792C15.4373 33.4107 14.9573 34.1467 14.424 35C13.9013 35.8427 12.9947 37.336 11.704 39.48C11.4693 39.8747 11.352 40.1573 11.352 40.328C11.352 40.3813 11.3573 40.4347 11.368 40.488C11.3893 40.5307 11.4 40.568 11.4 40.6C11.4 40.6533 11.3573 40.6907 11.272 40.712C10.952 40.8187 10.7387 40.8987 10.632 40.952C10.536 41.0053 10.4773 41.032 10.456 41.032C10.392 41.032 10.3333 40.9787 10.28 40.872C10.3333 40.84 10.3707 40.7867 10.392 40.712C10.424 40.6373 10.44 40.4987 10.44 40.296C10.44 39.7733 10.3387 38.776 10.136 37.304C9.93333 35.8213 9.72533 34.44 9.512 33.16C8.82933 34.8773 8.18933 36.3067 7.592 37.448C7.00533 38.5787 6.32267 39.512 5.544 40.248C4.776 40.984 3.90667 41.352 2.936 41.352C2.37067 41.352 1.88533 41.2293 1.48 40.984C1.07467 40.7387 0.770667 40.408 0.568 39.992C0.354667 39.5653 0.248 39.1013 0.248 38.6C0.248 38.152 0.322667 37.752 0.472 37.4C0.621333 37.0373 0.808 36.7547 1.032 36.552C1.256 36.3493 1.47467 36.248 1.688 36.248C1.79467 36.248 1.88 36.2747 1.944 36.328C1.4 36.904 1.128 37.5867 1.128 38.376C1.128 39.0267 1.29333 39.5333 1.624 39.896C1.96533 40.2587 2.45067 40.44 3.08 40.44C3.90133 40.44 4.63733 40.12 5.288 39.48C5.93867 38.84 6.54667 37.9493 7.112 36.808C7.688 35.6667 8.408 34.0453 9.272 31.944C9.26133 31.8693 9.25067 31.7893 9.24 31.704C9.22933 31.6187 9.21333 31.5333 9.192 31.448C9.17067 31.3307 9.13333 31.1013 9.08 30.76C9.03733 30.408 9.016 30.1467 9.016 29.976C9.016 29.7733 9.06933 29.6293 9.176 29.544C9.28267 29.448 9.41067 29.4 9.56 29.4C9.73067 29.4 9.896 29.4533 10.056 29.56C10.2267 29.656 10.312 29.8373 10.312 30.104C10.312 30.168 10.28 30.4453 10.216 30.936C10.1307 31.5547 10.0827 31.96 10.072 32.152C10.1573 32.6853 10.3387 33.912 10.616 35.832L11.08 39.032C13.4267 35.0533 15.1333 32.264 16.2 30.664C16.6587 29.9813 17.0107 29.5067 17.256 29.24C17.512 28.9627 17.7413 28.824 17.944 28.824C18.1253 28.824 18.2907 28.9147 18.44 29.096C18.5893 29.2667 18.6907 29.448 18.744 29.64C18.456 29.64 18.1733 29.768 17.896 30.024C17.6187 30.2693 17.3627 30.6213 17.128 31.08C16.7333 31.848 16.44 32.7813 16.248 33.88C16.056 34.9787 15.96 36.0133 15.96 36.984C15.96 38.1467 16.1093 39.0587 16.408 39.72C16.7067 40.3813 17.1653 40.712 17.784 40.712C18.3173 40.712 18.7653 40.4773 19.128 40.008C19.5013 39.5387 19.7627 38.9093 19.912 38.12ZM30.035 37.304C30.1737 37.304 30.243 37.4427 30.243 37.72C30.243 38.2107 30.0243 38.728 29.587 39.272C29.1603 39.816 28.6377 40.2747 28.019 40.648C27.411 41.0107 26.851 41.192 26.339 41.192C25.923 41.192 25.603 41.064 25.379 40.808C25.155 40.552 25.0217 40.2213 24.979 39.816C24.7123 40.2 24.3763 40.5147 23.971 40.76C23.5657 41.0053 23.203 41.128 22.883 41.128C22.6057 41.128 22.3283 41.0373 22.051 40.856C21.7843 40.664 21.5657 40.4347 21.395 40.168C21.2243 39.8907 21.1337 39.6293 21.123 39.384L21.907 36.152C21.971 35.896 22.131 35.624 22.387 35.336C22.6537 35.0373 22.9737 34.792 23.347 34.6C23.7203 34.408 24.099 34.312 24.483 34.312C24.9737 34.312 25.4057 34.4773 25.779 34.808C25.875 34.552 25.9443 34.392 25.987 34.328C26.0403 34.264 26.115 34.2267 26.211 34.216L26.995 34.136L27.043 34.168C26.8297 34.3387 26.675 34.6053 26.579 34.968C26.2483 36.2053 26.019 37.1173 25.891 37.704C25.7737 38.2907 25.715 38.808 25.715 39.256C25.715 39.704 25.7737 40.0347 25.891 40.248C26.0083 40.4507 26.2057 40.552 26.483 40.552C26.8243 40.552 27.2297 40.4133 27.699 40.136C28.179 39.8587 28.6323 39.4747 29.059 38.984C29.4857 38.4827 29.811 37.9227 30.035 37.304ZM22.947 40.376C23.1283 40.376 23.347 40.312 23.603 40.184C23.8697 40.056 24.115 39.8747 24.339 39.64C24.5737 39.3947 24.7337 39.1173 24.819 38.808L25.123 37.496C25.1657 37.2827 25.2403 36.9413 25.347 36.472C25.4537 35.992 25.539 35.624 25.603 35.368C25.3043 35.0693 24.9417 34.92 24.515 34.92C24.1843 34.92 23.8857 35.0107 23.619 35.192C23.3523 35.3627 23.1337 35.576 22.963 35.832C22.7923 36.0773 22.6857 36.296 22.643 36.488L22.003 39.336C22.0243 39.6027 22.131 39.8427 22.323 40.056C22.515 40.2693 22.723 40.376 22.947 40.376ZM37.0675 37.096C37.1742 37.096 37.2488 37.144 37.2915 37.24C37.3448 37.3253 37.3715 37.4267 37.3715 37.544C37.3715 37.928 37.1688 38.4133 36.7635 39C36.3582 39.5867 35.8408 40.0987 35.2115 40.536C34.5928 40.9733 33.9795 41.192 33.3715 41.192C32.9875 41.192 32.6888 41.096 32.4755 40.904C32.2728 40.712 32.1715 40.4187 32.1715 40.024C32.1715 39.48 32.3208 38.744 32.6195 37.816C32.9182 36.8773 33.1902 36.0987 33.4355 35.48C33.3928 35.416 33.3502 35.384 33.3075 35.384C33.2648 35.384 33.2168 35.4 33.1635 35.432C32.9715 35.5493 32.6568 35.8107 32.2195 36.216C31.7822 36.6213 31.3555 37.048 30.9395 37.496C30.5235 37.944 30.2408 38.3067 30.0915 38.584C29.9208 39.0427 29.8142 39.336 29.7715 39.464C29.7288 39.5813 29.6862 39.7787 29.6435 40.056L29.4995 40.776C29.4888 40.808 29.4782 40.8507 29.4675 40.904C29.4568 40.9467 29.4408 40.9733 29.4195 40.984C29.4088 40.9947 29.3875 41 29.3555 41C29.2595 41 29.1315 40.9893 28.9715 40.968C28.8222 40.9467 28.7475 40.9147 28.7475 40.872C28.7475 40.744 28.7848 40.536 28.8595 40.248C28.9342 39.96 29.0088 39.6987 29.0835 39.464C29.1582 39.2293 29.2168 39.048 29.2595 38.92L29.4035 38.472C29.7128 37.4053 29.9208 36.632 30.0275 36.152C30.1448 35.6613 30.2568 35.1173 30.3635 34.52C30.3742 34.4133 30.4488 34.36 30.5875 34.36C30.6835 34.36 30.7902 34.3867 30.9075 34.44C31.0355 34.4827 31.1102 34.5467 31.1315 34.632C31.0888 34.824 31.0088 35.1493 30.8915 35.608C30.7848 36.0667 30.6515 36.5733 30.4915 37.128C31.1102 36.4347 31.7502 35.8053 32.4115 35.24C33.0835 34.6747 33.5315 34.392 33.7555 34.392C33.8622 34.392 33.9902 34.4453 34.1395 34.552C34.2888 34.6587 34.3795 34.76 34.4115 34.856C34.0702 35.7733 33.7448 36.776 33.4355 37.864C33.1262 38.9413 32.9715 39.6507 32.9715 39.992C32.9715 40.3653 33.1848 40.552 33.6115 40.552C34.2408 40.552 34.8755 40.2 35.5155 39.496C36.1662 38.792 36.6835 37.992 37.0675 37.096ZM47.9525 24.072C48.5712 24.072 49.0778 24.184 49.4725 24.408C49.8778 24.6213 50.1285 24.904 50.2245 25.256V25.4C49.6165 25.1013 48.9978 24.952 48.3685 24.952C47.0778 24.952 45.9365 25.5547 44.9445 26.76C43.9632 27.9653 43.1098 29.864 42.3845 32.456C42.0752 33.5547 41.7552 34.8613 41.4245 36.376C41.0938 37.88 40.9285 38.92 40.9285 39.496C40.9285 39.7627 40.9765 39.9707 41.0725 40.12C41.1685 40.2587 41.3392 40.328 41.5845 40.328C41.8832 40.328 42.2192 40.2267 42.5925 40.024C42.9658 39.8107 43.3338 39.496 43.6965 39.08C44.0698 38.664 44.3952 38.1627 44.6725 37.576C44.8218 37.576 44.8965 37.704 44.8965 37.96C44.8965 38.3547 44.7152 38.7973 44.3525 39.288C43.9898 39.7787 43.5418 40.2 43.0085 40.552C42.4752 40.904 41.9632 41.08 41.4725 41.08C41.1312 41.08 40.8538 40.9893 40.6405 40.808C40.4272 40.6267 40.2778 40.3707 40.1925 40.04C39.9472 40.3493 39.6432 40.6107 39.2805 40.824C38.9285 41.0267 38.5925 41.128 38.2725 41.128C37.9845 41.128 37.6965 41.0373 37.4085 40.856C37.1205 40.6747 36.8858 40.4507 36.7045 40.184C36.5232 39.9067 36.4325 39.64 36.4325 39.384C36.6992 38.488 36.9765 37.3413 37.2645 35.944C37.3072 35.7093 37.4565 35.4587 37.7125 35.192C37.9792 34.9253 38.2992 34.7067 38.6725 34.536C39.0458 34.3547 39.4085 34.264 39.7605 34.264C40.1658 34.264 40.5818 34.3813 41.0085 34.616C41.2112 33.7947 41.4192 33.0107 41.6325 32.264C42.1872 30.344 42.7685 28.7867 43.3765 27.592C43.9845 26.3973 44.6565 25.512 45.3925 24.936C46.1392 24.36 46.9925 24.072 47.9525 24.072ZM40.3365 37.928C40.4645 37.2027 40.6405 36.328 40.8645 35.304C40.5018 35.0693 40.1392 34.952 39.7765 34.952C39.4032 34.952 39.0458 35.064 38.7045 35.288C38.3632 35.5013 38.1232 35.8053 37.9845 36.2C37.9098 36.4133 37.7872 36.9573 37.6165 37.832C37.5098 38.3653 37.3978 38.8667 37.2805 39.336C37.2805 39.5813 37.3978 39.832 37.6325 40.088C37.8672 40.344 38.1178 40.472 38.3845 40.472C38.5978 40.472 38.8272 40.392 39.0725 40.232C39.3285 40.0613 39.5632 39.8213 39.7765 39.512C40.0005 39.192 40.1552 38.8187 40.2405 38.392L40.3365 37.928ZM45.5943 41.112C45.2209 41.112 44.8849 40.9893 44.5863 40.744C44.2983 40.488 44.1543 40.1147 44.1543 39.624C44.3143 39.112 44.5916 37.976 44.9863 36.216C45.1783 35.352 45.2956 34.8347 45.3383 34.664C45.4769 34.4293 45.6689 34.312 45.9143 34.312C46.0743 34.312 46.1543 34.3653 46.1543 34.472C46.0796 34.7387 45.9729 35.1653 45.8343 35.752C45.7063 36.328 45.6049 36.7813 45.5303 37.112C45.2423 38.4347 45.0449 39.2827 44.9383 39.656C44.9383 39.9013 45.0076 40.0933 45.1463 40.232C45.2956 40.36 45.4876 40.424 45.7223 40.424C46.2556 40.424 46.7889 40.2373 47.3223 39.864C47.8663 39.48 48.3409 39.0373 48.7463 38.536C49.1623 38.0347 49.4716 37.6027 49.6743 37.24C49.7383 37.2613 49.7809 37.2987 49.8023 37.352C49.8236 37.3947 49.8343 37.4747 49.8343 37.592C49.8343 37.752 49.7809 37.9173 49.6743 38.088C49.0983 38.9947 48.4529 39.7253 47.7383 40.28C47.0236 40.8347 46.3089 41.112 45.5943 41.112ZM46.3303 32.312C46.1809 32.312 46.0636 32.264 45.9783 32.168C45.8929 32.0613 45.8503 31.928 45.8503 31.768C45.8503 31.5547 45.9196 31.3627 46.0583 31.192C46.1969 31.0107 46.3729 30.92 46.5863 30.92C46.7569 30.92 46.8796 30.9733 46.9543 31.08C47.0396 31.1867 47.0823 31.3147 47.0823 31.464C47.0823 31.6773 47.0076 31.8747 46.8583 32.056C46.7196 32.2267 46.5436 32.312 46.3303 32.312ZM62.6921 40.344C63.1401 40.344 63.5455 40.2853 63.9081 40.168C64.2815 40.0507 64.5961 39.9067 64.8521 39.736C64.8735 39.7787 64.8841 39.848 64.8841 39.944C64.8841 40.2747 64.6228 40.552 64.1001 40.776C63.5775 40.9893 63.0068 41.096 62.3881 41.096C61.8015 41.096 61.3641 40.9733 61.0761 40.728C60.7988 40.472 60.6601 40.056 60.6601 39.48C60.6601 38.7547 60.8468 37.4587 61.2201 35.592C60.4948 35.5707 59.5935 35.56 58.5161 35.56L55.6361 35.576C55.1988 37.1333 54.9215 38.152 54.8041 38.632C54.6868 39.1013 54.5481 39.7627 54.3881 40.616C54.3668 40.7333 54.3401 40.808 54.3081 40.84C54.2761 40.8613 54.2068 40.8773 54.1001 40.888C53.9615 40.8987 53.8441 40.92 53.7481 40.952C53.6628 40.9733 53.5401 41.0267 53.3801 41.112L53.2841 41.08C53.4868 40.5573 53.6521 40.072 53.7801 39.624C53.9188 39.1653 54.1535 38.328 54.4841 37.112L54.9161 35.576H54.8361C54.7295 35.576 54.6175 35.512 54.5001 35.384C54.3828 35.2453 54.3241 35.1013 54.3241 34.952C54.3241 34.8987 54.3401 34.8667 54.3721 34.856C54.4041 34.8347 54.4735 34.824 54.5801 34.824L55.1241 34.84L55.2841 34.28C55.5828 33.2027 55.7855 32.44 55.8921 31.992C55.9988 31.5333 56.0521 31.1813 56.0521 30.936C56.0521 30.7227 56.0041 30.584 55.9081 30.52C55.8121 30.4453 55.6575 30.408 55.4441 30.408C55.2521 30.408 55.0015 30.424 54.6921 30.456C54.3828 30.4773 54.1375 30.504 53.9561 30.536C53.9135 30.4507 53.8708 30.3707 53.8281 30.296C53.7961 30.2107 53.7801 30.1307 53.7801 30.056C53.7801 29.928 53.8441 29.864 53.9721 29.864C55.2735 29.8107 56.0841 29.7733 56.4041 29.752C56.7241 29.72 56.9161 29.704 56.9801 29.704C57.0761 29.704 57.1455 29.7147 57.1881 29.736C57.2308 29.7573 57.2521 29.8 57.2521 29.864C57.2521 29.8853 57.2415 29.9387 57.2201 30.024L55.8281 34.872C56.5001 34.904 57.4655 34.92 58.7241 34.92C59.5135 34.92 60.3988 34.9093 61.3801 34.888C61.7428 33.128 62.1908 31.4 62.7241 29.704C62.7881 29.4907 62.8841 29.336 63.0121 29.24C63.2255 29.0907 63.6095 28.9147 64.1641 28.712C64.7295 28.5093 65.1561 28.408 65.4441 28.408C65.7428 28.408 65.8921 28.552 65.8921 28.84C65.6255 28.84 65.2255 28.9467 64.6921 29.16C64.1588 29.3627 63.8121 29.5653 63.6521 29.768C63.4708 29.992 63.2361 30.6053 62.9481 31.608C62.6601 32.6107 62.3935 33.6667 62.1481 34.776C61.7108 36.7813 61.4921 38.2907 61.4921 39.304C61.4921 39.5493 61.5188 39.7467 61.5721 39.896C61.6255 40.0347 61.7375 40.1467 61.9081 40.232C62.0788 40.3067 62.3401 40.344 62.6921 40.344ZM67.6411 41.112C67.2678 41.112 66.9318 40.9893 66.6331 40.744C66.3451 40.488 66.2011 40.1147 66.2011 39.624C66.3611 39.112 66.6385 37.976 67.0331 36.216C67.2251 35.352 67.3425 34.8347 67.3851 34.664C67.5238 34.4293 67.7158 34.312 67.9611 34.312C68.1211 34.312 68.2011 34.3653 68.2011 34.472C68.1265 34.7387 68.0198 35.1653 67.8811 35.752C67.7531 36.328 67.6518 36.7813 67.5771 37.112C67.2891 38.4347 67.0918 39.2827 66.9851 39.656C66.9851 39.9013 67.0545 40.0933 67.1931 40.232C67.3425 40.36 67.5345 40.424 67.7691 40.424C68.3025 40.424 68.8358 40.2373 69.3691 39.864C69.9131 39.48 70.3878 39.0373 70.7931 38.536C71.2091 38.0347 71.5185 37.6027 71.7211 37.24C71.7851 37.2613 71.8278 37.2987 71.8491 37.352C71.8705 37.3947 71.8811 37.4747 71.8811 37.592C71.8811 37.752 71.8278 37.9173 71.7211 38.088C71.1451 38.9947 70.4998 39.7253 69.7851 40.28C69.0705 40.8347 68.3558 41.112 67.6411 41.112ZM68.3771 32.312C68.2278 32.312 68.1105 32.264 68.0251 32.168C67.9398 32.0613 67.8971 31.928 67.8971 31.768C67.8971 31.5547 67.9665 31.3627 68.1051 31.192C68.2438 31.0107 68.4198 30.92 68.6331 30.92C68.8038 30.92 68.9265 30.9733 69.0011 31.08C69.0865 31.1867 69.1291 31.3147 69.1291 31.464C69.1291 31.6773 69.0545 31.8747 68.9051 32.056C68.7665 32.2267 68.5905 32.312 68.3771 32.312ZM82.134 37.304C82.1447 37.6347 81.942 38.104 81.526 38.712C81.1207 39.32 80.6193 39.8587 80.022 40.328C79.4247 40.7973 78.838 41.032 78.262 41.032C77.8567 41.032 77.5207 40.904 77.254 40.648C76.998 40.3813 76.87 39.9813 76.87 39.448C76.87 39.0107 76.9393 38.52 77.078 37.976C77.2273 37.4213 77.4247 36.7653 77.67 36.008C77.7447 35.8053 77.814 35.592 77.878 35.368C77.878 35.336 77.8567 35.3093 77.814 35.288C77.7713 35.256 77.7287 35.24 77.686 35.24C77.5473 35.24 77.27 35.4427 76.854 35.848C76.4487 36.2427 76.0327 36.7013 75.606 37.224C75.19 37.736 74.9127 38.1253 74.774 38.392C74.6673 38.7227 74.4913 39.416 74.246 40.472C74.2033 40.6533 74.166 40.776 74.134 40.84C74.1127 40.904 74.07 40.936 74.006 40.936C73.91 40.936 73.798 40.8773 73.67 40.76C73.5527 40.6427 73.494 40.5253 73.494 40.408C73.494 40.2907 73.5473 40.0347 73.654 39.64C74.102 37.9973 74.4647 36.5733 74.742 35.368C74.678 35.2827 74.598 35.24 74.502 35.24C74.342 35.24 74.07 35.4373 73.686 35.832C73.302 36.2267 72.902 36.728 72.486 37.336C72.07 37.9333 71.7287 38.5253 71.462 39.112C71.302 39.6347 71.158 40.2373 71.03 40.92C70.9233 40.92 70.7847 40.8827 70.614 40.808C70.4433 40.7333 70.358 40.6587 70.358 40.584C70.358 40.4987 70.4113 40.2587 70.518 39.864L71.878 34.568C71.8993 34.472 71.926 34.4027 71.958 34.36C71.99 34.3173 72.038 34.296 72.102 34.296C72.166 34.296 72.2727 34.328 72.422 34.392C72.582 34.456 72.6833 34.5093 72.726 34.552L72.582 35.064C72.55 35.192 72.4753 35.4587 72.358 35.864C72.2513 36.2587 72.15 36.6693 72.054 37.096C72.3847 36.52 72.726 36.0453 73.078 35.672C73.4407 35.288 73.7713 35.0107 74.07 34.84C74.3687 34.6587 74.598 34.568 74.758 34.568C74.8753 34.568 75.0247 34.632 75.206 34.76C75.3873 34.888 75.478 34.9947 75.478 35.08C75.382 35.6667 75.2433 36.328 75.062 37.064C75.4993 36.4667 76.022 35.8747 76.63 35.288C77.238 34.6907 77.702 34.392 78.022 34.392C78.1713 34.392 78.3313 34.4507 78.502 34.568C78.6727 34.6853 78.7633 34.824 78.774 34.984C78.4327 36.04 78.166 36.9093 77.974 37.592C77.7927 38.2747 77.702 38.888 77.702 39.432C77.702 39.752 77.7553 39.9867 77.862 40.136C77.9687 40.2747 78.1607 40.344 78.438 40.344C79.0887 40.344 79.718 39.992 80.326 39.288C80.934 38.5733 81.398 37.736 81.718 36.776C81.8353 36.776 81.9313 36.8293 82.006 36.936C82.0913 37.0427 82.134 37.1653 82.134 37.304ZM87.904 36.52C88.0107 36.52 88.096 36.5733 88.16 36.68C88.224 36.776 88.256 36.8987 88.256 37.048C88.256 37.24 88.2027 37.4427 88.096 37.656C87.7973 38.2853 87.3707 38.8667 86.816 39.4C86.2613 39.9227 85.6587 40.3387 85.008 40.648C84.368 40.9573 83.7707 41.112 83.216 41.112C82.0853 41.112 81.52 40.456 81.52 39.144C81.52 38.2267 81.7707 36.7547 82.272 34.728C82.7733 32.6907 83.4987 29.992 84.448 26.632C84.6507 25.9387 84.8693 25.4267 85.104 25.096C85.3493 24.7653 85.6267 24.6 85.936 24.6C86.16 24.6 86.3733 24.68 86.576 24.84C86.7893 24.9893 86.9653 25.224 87.104 25.544C87.2427 25.864 87.312 26.2587 87.312 26.728C87.312 27.4853 87.1307 28.4453 86.768 29.608C86.416 30.7707 85.8827 31.9973 85.168 33.288C84.4533 34.5787 83.5947 35.7733 82.592 36.872C82.4107 37.8107 82.32 38.5093 82.32 38.968C82.32 39.48 82.4213 39.848 82.624 40.072C82.8373 40.2853 83.1307 40.392 83.504 40.392C84.0267 40.392 84.5813 40.216 85.168 39.864C85.7653 39.512 86.3093 39.0373 86.8 38.44C87.2907 37.8427 87.6587 37.2027 87.904 36.52ZM84.864 27.64C83.968 30.8613 83.2907 33.5333 82.832 35.656C83.6213 34.664 84.2987 33.5813 84.864 32.408C85.44 31.2347 85.8667 30.136 86.144 29.112C86.432 28.088 86.576 27.2827 86.576 26.696C86.576 26.3653 86.528 26.0827 86.432 25.848C86.336 25.6027 86.176 25.48 85.952 25.48C85.824 25.48 85.6693 25.6133 85.488 25.88C85.3173 26.1467 85.1093 26.7333 84.864 27.64ZM96.2538 37.304C96.3924 37.304 96.4618 37.4427 96.4618 37.72C96.4618 38.2107 96.2431 38.728 95.8058 39.272C95.3791 39.816 94.8564 40.2747 94.2378 40.648C93.6298 41.0107 93.0698 41.192 92.5578 41.192C92.1418 41.192 91.8218 41.064 91.5978 40.808C91.3738 40.552 91.2404 40.2213 91.1978 39.816C90.9311 40.2 90.5951 40.5147 90.1898 40.76C89.7844 41.0053 89.4218 41.128 89.1018 41.128C88.8244 41.128 88.5471 41.0373 88.2698 40.856C88.0031 40.664 87.7844 40.4347 87.6138 40.168C87.4431 39.8907 87.3524 39.6293 87.3418 39.384L88.1258 36.152C88.1898 35.896 88.3498 35.624 88.6058 35.336C88.8724 35.0373 89.1924 34.792 89.5658 34.6C89.9391 34.408 90.3178 34.312 90.7018 34.312C91.1924 34.312 91.6244 34.4773 91.9978 34.808C92.0938 34.552 92.1631 34.392 92.2058 34.328C92.2591 34.264 92.3338 34.2267 92.4298 34.216L93.2138 34.136L93.2618 34.168C93.0484 34.3387 92.8938 34.6053 92.7978 34.968C92.4671 36.2053 92.2378 37.1173 92.1098 37.704C91.9924 38.2907 91.9338 38.808 91.9338 39.256C91.9338 39.704 91.9924 40.0347 92.1098 40.248C92.2271 40.4507 92.4244 40.552 92.7018 40.552C93.0431 40.552 93.4484 40.4133 93.9178 40.136C94.3978 39.8587 94.8511 39.4747 95.2778 38.984C95.7044 38.4827 96.0298 37.9227 96.2538 37.304ZM89.1658 40.376C89.3471 40.376 89.5658 40.312 89.8218 40.184C90.0884 40.056 90.3338 39.8747 90.5578 39.64C90.7924 39.3947 90.9524 39.1173 91.0378 38.808L91.3418 37.496C91.3844 37.2827 91.4591 36.9413 91.5658 36.472C91.6724 35.992 91.7578 35.624 91.8218 35.368C91.5231 35.0693 91.1604 34.92 90.7338 34.92C90.4031 34.92 90.1044 35.0107 89.8378 35.192C89.5711 35.3627 89.3524 35.576 89.1818 35.832C89.0111 36.0773 88.9044 36.296 88.8618 36.488L88.2218 39.336C88.2431 39.6027 88.3498 39.8427 88.5418 40.056C88.7338 40.2693 88.9418 40.376 89.1658 40.376ZM103.286 37.096C103.393 37.096 103.468 37.144 103.51 37.24C103.564 37.3253 103.59 37.4267 103.59 37.544C103.59 37.928 103.388 38.4133 102.982 39C102.577 39.5867 102.06 40.0987 101.43 40.536C100.812 40.9733 100.198 41.192 99.5903 41.192C99.2063 41.192 98.9076 41.096 98.6943 40.904C98.4916 40.712 98.3903 40.4187 98.3903 40.024C98.3903 39.48 98.5396 38.744 98.8383 37.816C99.1369 36.8773 99.4089 36.0987 99.6543 35.48C99.6116 35.416 99.5689 35.384 99.5263 35.384C99.4836 35.384 99.4356 35.4 99.3823 35.432C99.1903 35.5493 98.8756 35.8107 98.4383 36.216C98.0009 36.6213 97.5743 37.048 97.1583 37.496C96.7423 37.944 96.4596 38.3067 96.3103 38.584C96.1396 39.0427 96.0329 39.336 95.9903 39.464C95.9476 39.5813 95.9049 39.7787 95.8623 40.056L95.7183 40.776C95.7076 40.808 95.6969 40.8507 95.6863 40.904C95.6756 40.9467 95.6596 40.9733 95.6383 40.984C95.6276 40.9947 95.6063 41 95.5743 41C95.4783 41 95.3503 40.9893 95.1903 40.968C95.0409 40.9467 94.9663 40.9147 94.9663 40.872C94.9663 40.744 95.0036 40.536 95.0783 40.248C95.1529 39.96 95.2276 39.6987 95.3023 39.464C95.3769 39.2293 95.4356 39.048 95.4783 38.92L95.6223 38.472C95.9316 37.4053 96.1396 36.632 96.2463 36.152C96.3636 35.6613 96.4756 35.1173 96.5823 34.52C96.5929 34.4133 96.6676 34.36 96.8063 34.36C96.9023 34.36 97.0089 34.3867 97.1263 34.44C97.2543 34.4827 97.3289 34.5467 97.3503 34.632C97.3076 34.824 97.2276 35.1493 97.1103 35.608C97.0036 36.0667 96.8703 36.5733 96.7103 37.128C97.3289 36.4347 97.9689 35.8053 98.6302 35.24C99.3023 34.6747 99.7503 34.392 99.9743 34.392C100.081 34.392 100.209 34.4453 100.358 34.552C100.508 34.6587 100.598 34.76 100.63 34.856C100.289 35.7733 99.9636 36.776 99.6543 37.864C99.3449 38.9413 99.1903 39.6507 99.1903 39.992C99.1903 40.3653 99.4036 40.552 99.8303 40.552C100.46 40.552 101.094 40.2 101.734 39.496C102.385 38.792 102.902 37.992 103.286 37.096Z" fill="#0B2639"/>
<defs>
<filter id="filter0_d_67_3" x="24.968" y="11.016" width="52.5909" height="42.08" filterUnits="userSpaceOnUse" color-interpolation-filters="sRGB">
<feFlood flood-opacity="0" result="BackgroundImageFix"/>
<feColorMatrix in="SourceAlpha" type="matrix" values="0 0 0 0 0 0 0 0 0 0 0 0 0 0 0 0 0 0 127 0" result="hardAlpha"/>
<feOffset dy="4"/>
<feGaussianBlur stdDeviation="2"/>
<feComposite in2="hardAlpha" operator="out"/>
<feColorMatrix type="matrix" values="0 0 0 0 0 0 0 0 0 0 0 0 0 0 0 0 0 0 0.25 0"/>
<feBlend mode="normal" in2="BackgroundImageFix" result="effect1_dropShadow_67_3"/>
<feBlend mode="normal" in="SourceGraphic" in2="effect1_dropShadow_67_3" result="shape"/>
</filter>
<linearGradient id="paint0_linear_67_3" x1="51" y1="0" x2="51" y2="57" gradientUnits="userSpaceOnUse">
<stop stop-color="#B57765"/>
<stop offset="1" stop-color="#F5F5F5"/>
</linearGradient>
</defs>
</svg>
